<svg width="29" height="29" fill="none" xmlns="http://www.w3.org/2000/svg"><path d="M18.886 14.49c0 2.42-1.96 4.38-4.376 4.38a4.379 4.379 0 01-4.376-4.38c0-2.42 1.96-4.381 4.376-4.381a4.379 4.379 0 014.376 4.38z" stroke="#fff" stroke-width="1.4" stroke-miterlimit="10"/><path d="M15.568 7.687H13.45L13.028 4h2.963l-.423 3.687zm4.512 2.762l-1.493-1.504 2.316-2.898 2.088 2.106-2.912 2.296zm1.218 5.151l.016-2.12L25 13.083l-.022 2.967-3.68-.45zm-2.792 4.494l1.513-1.482 2.878 2.339-2.119 2.075-2.272-2.932zm-5.155 1.182l2.117.032.37 3.692-2.964-.044.477-3.68zm-4.469-2.828l1.47 1.526-2.359 2.864-2.056-2.136 2.945-2.254zM7.738 13.28l-.046 2.12L4 15.741l.065-2.966 3.673.505zm2.859-4.452l-1.535 1.46-2.844-2.382 2.149-2.043 2.23 2.965z" fill="#fff"/></svg>