<svg width="164" height="45" fill="none" xmlns="http://www.w3.org/2000/svg"><path d="M88.793 35.33a22.96 22.96 0 01-1.715-2.663c-.453-.744-1.358-1.752-2.311-2.04 2.358-.336 3.311-2.183 3.311-3.887 0-2.975-2.549-3.91-5.193-3.91H75.57v.24h.286c.69 0 1.239.527 1.263 1.247v11.397c-.024.72-.596 1.272-1.263 1.272h-.286v.24h6.552v-.24h-.263c-.643 0-1.286-.48-1.286-1.296V23.813c.262 0 .739-.024 1.358 0 .81.048 2.43.384 2.525 2.76.024.455-.024.815-.071 1.007-.405 2.016-1.501 2.376-2.478 2.4h-.62v.191c.453.024 1.025.456 1.43 1.464.215.816 1.072 2.423 1.596 3.287 1.144 1.776 2.359 2.28 4.932 2.28h2v-.24c-.976 0-1.524-.336-2.453-1.632z" fill="#fff"/><path d="M103.664 26.788c-.072-2.231-1.716-3.983-5.527-3.983h-7.052v.24h.286c.715 0 1.286.552 1.286 1.272v11.397c-.024.72-.572 1.272-1.286 1.272h-.286v.216h6.599v-.24h-.286c-.762 0-1.286-.528-1.31-1.248V23.765h1.096c1.763 0 2.81 1.104 2.858 2.855 0 .36-.047.864-.142 1.272-.715 2.687-3.05 2.423-3.05 2.423v.216c3.121 2.112 6.956.072 6.814-3.743zm16.079-2.447a1.29 1.29 0 011.31-1.296h.262v-.24h-6.575v.24h.262c.715 0 1.286.552 1.31 1.296v5.23h-6.265v-5.254a1.3 1.3 0 011.31-1.272h.262v-.24h-6.575v.24h.262c.691 0 1.286.552 1.286 1.296V35.69c0 .744-.595 1.296-1.286 1.296l-.262-.024v.24h6.575v-.24l-.262.023a1.3 1.3 0 01-1.31-1.271v-5.207h6.265v5.207a1.3 1.3 0 01-1.31 1.272h-.262v.24h6.551v-.24h-.262a1.265 1.265 0 01-1.286-1.272V24.34zm14.94 8.469c-.62 2.112-2.001 3.408-4.003 3.432h-2.882v-5.687h2.739c1.12.048 1.787.84 1.787 1.896v.168h.262v-5.063h-.262v.144c0 1.08-.691 1.872-1.81 1.896h-2.716v-5.807h3.43c1.382.024 2.168.888 2.168 2.256v.24h.262v-3.84c-.381.145-1.596.36-2.477.36h-8.386v.24h.286a1.28 1.28 0 011.286 1.272v11.397a1.275 1.275 0 01-1.286 1.248h-.286v.24h11.197l.929-4.391h-.238zm17.044-10.005h-4.407v.216h.333c.596 0 1.072.432 1.096 1.032v8.086c-.024 2.783-1.501 4.439-3.978 4.439-2.43 0-3.86-1.752-3.86-4.703v-7.798c.024-.624.477-1.056 1.072-1.056h.358v-.216h-6.266v.216h.31c.595 0 1.096.432 1.096 1.056v7.942c0 3.43 2.239 5.494 6.837 5.494 3.812 0 6.003-2.087 6.003-5.542v-7.918c0-.6.501-1.032 1.073-1.032h.333v-.216zm6.005 4.439c-.929-.504-1.62-1.008-1.548-1.92.071-1.079 1.072-1.847 2.597-1.847 1.905 0 2.977.936 2.977 2.4h.191l.286-2.736.048-.407h-1.287c-1-.12-2.311-.216-3.097-.216-2.43 0-4.097 1.343-4.288 3.622-.191 1.656.5 3.096 2.096 3.935l3.383 2.16c1.287.648 1.787 1.32 1.787 2.16 0 1.175-.905 2.159-2.763 2.183-2.526 0-4.074-1.824-3.931-3.983h-.191c-.572.912-.881 2.735-.524 3.647.691.744 2.335 1.271 4.383 1.271 3.312 0 5.456-1.631 5.599-4.342.119-1.704-.691-2.928-1.954-3.6l-3.764-2.327zM66.825 20.37c-5.522-1.49-9.93.799-11.31 5.99-1.388 5.215 1.299 9.392 6.822 10.883 5.522 1.49 9.9-.781 11.287-5.996 1.382-5.191-1.276-9.386-6.799-10.876zm-4.23 15.9c-3.244-.876-4.534-4.28-3.313-8.868 1.227-4.612 4.034-6.91 7.278-6.035 3.245.876 4.511 4.273 3.284 8.885-1.22 4.589-4.004 6.893-7.248 6.018z" fill="#fff"/><path d="M23.18 40.77c9.9-1.142 17.59-9.58 17.59-19.82C40.77 9.932 31.866 1 20.884 1 9.903 1 1 9.932 1 20.95a19.952 19.952 0 009.495 17.014" stroke="url(#paint0_radial_171_55)" stroke-linecap="round"/><path d="M32.099 21.632c-.057-.525.01-1.277-.125-1.693l-.005-.028c-.29 1.154.072 2.43-.527 3.498-.505.674-.49 1.48-.439 2.273.032 1.327.134 2.656.128 3.983-.166 1.028-1.178-.004-1.74.227-.546.3-1.003-.076-1.128-.612-.314.63-.062 1.157.52 1.43.232.147.285.73-.116.658-1.027-.168-1.799.483-2.747.653.634.338 2.444-.688 2.338.538-.054.64-.963.282-1.144.88.697.581.337 1.688-.49 1.959-2.667.465-5.246-1.183-7.526-2.328-1.726-1.067-2.635-2.929-2.985-4.82-.157-.402 1.48.373 1.728-.014-3.071-.332-4.15-8.238-.028-5.309.387.436.583.993.71 1.547 0 .49 1.058-.703 2.243-.064 1.566.52 2.451-.982 3.598-1.686 1.02-.7 2.164-1.257 3.077-2.085.406-.352-1.077-.068-1.293-.615-.54-.585-1.375-.932-2.092-.43-.567.44-1.482 1.07-1.573 1.736 1.296-1.502 2.092-1.761 3.75-.555.218.066.17.175.057.277-.303.287-.715.128-1.068.043-.929-.396-2.095-.124-2.209.948.258-.482 1.67-1.08 1.798-.416-1.228.877-2.198 2.705-3.964 2.28-.608-.172-1.418-.383-1.757-.9.89.39 2.193.687 2.905-.127-3.253 1.521-3.653-3.797-6.072-2.217.97-.107 2.585 1.605 1.046 1.185-1.19-.43-1.879 1.196-2.97.583-1.026-.796.62-.05.831-.727.118-.147.012-.258-.148-.178-1.117.294-1.27-.028-2.027-.528-.01.148.283.651-.026.596-.258.014-1.054-.645-.727-.133.598.666 2.066 1.287 1.647 2.321-.473-.638-.522-.681-.877-.752.21.398.407.788.384 1.241-.458-.434-.542-1.248-1.32-1.415-.309-.11-.729-.45-.658-.774.483.313.804.484 1.23.354-.566-.465-1.368-.73-1.464-1.663.071-.327-.744-1.574-.35-1.524.286.17.503.427.617.73 1.399 1.798.975.227.144-.673-.264-.468-1.89-1.609-1.783-.504.344 1.037.834 2.137.458 3.235-.589 1.306-.86-.688-.951-1.204-.13-.354-.045-.898-.272-1.154-.165.2-.09.58-.104.84.338 1.87-.133 4.673 1.353 6.314.206 1.164.782 2.195 1.956 2.75.606 1.075.203 2.658.195 3.893-.2 2.502-1.782 4.479-3.181 6.482-3.503 6.87 1.444-.767 8.22 1.626 3.063.992 5.821 2.79 9.046 3.321 2.787.757-4.273-3.245-4.565-4.033-.418-1.375.35-2.987.458-4.42.085-.446-.013-.465.578-.439 1.31.069 2.638.143 3.935-.096 2.13-.355.609-2.267 1.66-2.742.575-.116.342-.737.38-1.118.065-.176.311-.134.469-.218.623-.273-.201-1.34.735-1.344.788.114 1.831.14 1.718-.925-.007-1.49-.154-2.974-.165-4.463-.023-1.223.949-2.211.704-3.475zM11.855 27.95c-.983-.754-2.165-1.501-1.959-2.885.4.632.554 1.266 1.214 1.696.229.087 1.297 1.436.745 1.189zm.353-1.406c-1.017-.239-1.434-1.086-1.66-1.998-.023-.544-1.505-2.114-.089-1.197.09.07.13.195.261.21.06-.166-.311-.687.05-.503 1.343.688.49 2.263 1.446 3.184.149.1.32.407-.008.304zm9.175 9.389c-.347 1.45-.543 2.927-.805 4.393-.597.507-1.736-.394-2.27-.794-.9-.634-3.716-4.356-2.38-1.031.037.344.706 1.295.11 1.343-2.217-1.15-2.434-4.384-1.484-6.415.482-.87 1.493-.703 2.171-.15 1.331 1.201 3.297 1.722 4.658 2.654zm1.627-13.886c.004 0 .007 0 .004-.006a.05.05 0 00-.005.007zm-10.981-1.212h.005s-.004-.003-.005 0zm21.078-4.665c-.498-1.124-1.192-2.54-2.652-2.568-.168.018-.238-.094-.233-.242.065-1.376-5.686 2.115-6.566 2.31-.74.273 1.304-1.378 1.46-1.608 1.62-1.347 3.002-3.499 5.147-4.004.22.112.316-.043.307-.251.348-1.256-1.034-1.827-2.105-1.932-1.072-.003-1.477 1.283-2.078 1.96-.166.28-.343.551-.646.232-1.069-.681-2.12-1.409-3.447-1.521.933.444 2.28.84 2.634 1.783-.295-.13-.516-.45-.86-.43.153.154.498 1.064.15.746-.513-.812-1.402-1.294-2.283-1.653-1.555-.601-2.372 1.369-5.46 1.051 1.924.9 4.33-1.237 6.194.222-.054-.392-.573-.454-.764-.768 1.142.147 1.499 1.239 2.177 1.977.55.682.02.221-.36.105.181.377.706.774.51 1.168-.21.255-1.177-1.581-1.8-1.736-1.237-.855-2.772-.504-4.042.09-1.356.63-2.592-.966-3.927-.31-1.064.276-1.469 1.607-2.454 1.825-2.416-.09 1.014-.989 1.34-1.74.356-.438.883-.62 1.322-.94-.4-.079-.706.214-1.073.237.319-.654 1.225-.897 1.93-.969.802-.068 1.596.096 2.396.12 4.613-.615.117-1.68-1.67-1.067.617.08 1.184.156 1.662.493-1.992-.282-4.31-.02-5.235 2.01-.225.57-.984.446-1.297.945-.563.708-.999 1.499-1.495 2.248-.336.847-1.834 3.087-.646 4.113.304-.569.777-1.014 1.525-.723 1.29.784.198-1.078-.566-.709-1.735.811.26-.675.575-1.031-.47.07-.789.473-1.21.592.258-1.339 1.05-1.998 2.155-2.81.773-.768 1.15 1.449 1.908.278.432-.914 1.58-1.136 2.289-1.604-.65-.035-1.27.255-1.799.593-.055.035-.108.107-.206.017.845-1.246 1.796-1.482 3.214-.972 1.692.247 1.995-1.178 3.913.21.396.272 2.61 1.998 1.741 2.27-1.31.345-2.215-2.1-3.594-1.346-1.098 1.155-1.925 1.867-3.637 1.335-1.678-.06-1.281 1.062-3.534.327-.4.096-.893.231-1.13.559.88-.089 1.793-.19 2.387.627.483.695 1.544.916 2.127.162-.342.11-1.265.215-1.232-.191a1.27 1.27 0 00.781-.486c.407-.54 1.113-.054 1.634.05 1.473.534 1.798-1.642 3.082-1.65.507.048 1.042.258 1.38.639-.626-.061-1.306-.344-1.873.099-.373.382 1.24-.077 1.309.425-1.045.077-2.38.121-3.136.85 1.052-.444 1.8.65 2.828.416-2.76-.798.027-1.38 1.019-.53 2.092-.615 3.64-2.759 4.928-4.436.94-.965 1.698-3.252 3.311-2.04.445.209-2.43 2.458-2.73 2.978-1.273 1.265-2.555 2.543-4.07 3.542-.574.46-1.412.652-1.972.988 1.65.34 3.204-.607 4.714-1.115 2.02-.537 5.035-2.515 6.612-.33.679.821 1 2.062.703 3.084-.075.112.026.202.142.122.422-.116.448-1.763.276-2.087zm-15.19-7.42c.007 0-.022.016-.022.017l.021-.017zm5.563 4.814c-1.008-.86-1.743-2.278-3.262-2.659.83-.251 1.528-.092 2.136.44.377.468 1.916 1.718 1.126 2.22v-.001zm.869-1.684c-.025-.01-.03-.027-.012-.048.017.015.033.034.012.05v-.002zm-1.673-1.61l-.007-.005c0 .005-.003.01-.004.014l.011-.009zm-3.609 4.207c0-.008 0-.01-.009-.01l.01.01zm-8.287 1.115v.013l.012-.003-.012-.01z" fill="#fff"/><path d="M22.535 20.375c-.52 1.056-1.712 1.23-2.77.865.126.586.921.926 1.503.8-2.827 1.849-2.436-4.903-5.868-2.004-.576.633-1.347 1.41-2.192.785-.432-.116-1.513-1.724-.506-1.173 2.194 1.061 2.753-2.852 4.722-1.967-.23.228-.709.232-.898.59-.216.245.72.129.896.45 1.44 1.404 3.072 3.25 5.113 1.654z" fill="#fff"/><path d="M19.32 16.707c1.217 1.757 3.622.722 4.948 2.01-1.716-.964-3.833 1.183-5.217-.593-.495-.798-.98-1.676-2.082-1.643-1.278-.068-1.687 1.33-2.448 2.06-1.15 1.338-2.836.37-2.747-1.221 1.28 2.763 2.736.363 4.068-.807 1.376-1.028 2.675.31 3.5 1.336.535.558 1.5.866 2.22.501-.98-.26-1.944-.495-2.241-1.643zm10.845 6.686c-1.482-.142-2.997.383-4.415.747.5 1.324 1.979.163 2.992.181.154-.078.783.097.45.223-.57-.064-1.1.148-1.62.337-.948.171.14.968.464 1.279.67.715 3.353-2.485 2.129-2.767zm-1.166 1.923c-.045 1.038-1.746.093-1.323-.26.333-.066 1.332-.352 1.323.26zm2.289-9.134c-1.286-1.5-1.48.349-2.818.452 1.055.894 2.05-1.405 2.729.296-.788-.902-1.459.442-2.322.183-.525-.224-1.182-.298-1.564-.745-.21-.271-.486-.255-.776-.212-.165.132-1.386.3-.99-.01a1.4 1.4 0 00.675-.422c.681-.478 1.557.473 2.331.43.93.075 1.593-2.45 2.735.028z" fill="#fff"/><path d="M18.937 19.006c2.246 1.882 2.568-.328 4.628-.135-.03.105-.097.108-.15.117-.635.094-1 .615-1.438 1.008-1.041 1.158-2.692.296-3.04-.99zm10.223-.321c.077.175.26.178.361.281-1.706-.157-.93-1.594-3.738-1.15 2.348-1.25 2.797.498 3.814.352.353-.134.718-.356.964.101-.56-.209-.905.274-1.4.416zm-13.372 5.236c.146-1.539 2.161-.852 1.642.464-.044.068-.044.202.069.181.514-.376.341.35.196.582-.314.473-1.201.19-1.03-.413.025-.365.488-.763.217-1.1-.406-.397-.798.049-1.094.286zm.909-11.412c.656.483 1.313-.15 1.985-.12-.744.572-1.441 1.72-2.483.93-.587-.42-1.211.121-1.776.248.199-.46.486-.658.95-.659.487-.081 1.895.677 1.962 0-.232-.108-.522-.157-.639-.4zm12.297 6.898c-1 .416-1.552-.692-2.537-.552-.765.107.811 1.093 1.076 1.182-.712.071-1.116-.42-1.522-.909-.099-.15-.668-.255-.298-.38 1.775-.728 1.852.333 3.28.66zm-1.967-6.213c.707-.808 1.939-1.366 2.909-1.933.417-.273.806.578.38.66-1.173.142-2.285.716-3.296 1.274h.007zM12.754 16.97c.159.076.316.159.547.097-.273-.242-.607-.387-.686-.717.63.572 1.424.525 2.205.43-.233.823-1.827 1.115-2.066.19zm10.707-.253c.951.188 1.71.25 2.623.131-.629.989-1.859.745-2.623-.13zm-7.065 9.066c.418.354.872.26 1.355.125.347 1.484-1.783.355-1.765-.513 0 0 .252.275.41.388zm14.992-7.506c-.722-.884-1.43-.397-2.226-.678.744-.201 2.115-.472 2.226.678zm-20.599-2.676l.065-.043c.013.085-.088.01-.065.043zm11.875-5.319a.11.11 0 01.075.02.104.104 0 01.041.063c-.036-.022-.08-.103-.116-.083zm8.658 6.763c-.04-.028-.081-.125-.123-.115.072.01.078.08.123.115z" fill="#fff"/><path d="M12.762 16.978l-.031.013c.008-.005.025-.03.031-.013zm9.766 3.405l-.005-.032c.003.007.019.026.005.032zm-10.499.451l.022-.026c-.007.007-.01.028-.022.026zm7.311-4.125l-.026.02c.065.023-.018-.03.027-.02zm-6.704-.356l-.029.022c.068.027-.013-.034.029-.022zm18.636-.18c.06-.012.012.048.03-.008.005-.018-.02-.019-.015.016l-.015-.008zm-10.078-.71l.01.028c-.006-.01-.03-.02-.01-.027zm-2.136-.995c-.026.052.052.007-.003.03-.044.015-.03-.043.012-.021l-.009-.01zm-2.343-1.952c-.06.012-.01-.05-.022.006-.003.014.02.013.007-.013l.015.007zm6.067-2.161l.007.02c.035-.038-.009-.005-.007-.02zm8.526 6.681l.024-.004c-.041-.04.005.028-.024.004z" fill="#fff"/><defs><radialGradient id="paint0_radial_171_55" cx="0" cy="0" r="1" gradientUnits="userSpaceOnUse" gradientTransform="matrix(0 50.7509 -32.2972 0 20.885 1)"><stop stop-color="#F7D587"/><stop offset=".595" stop-color="#8A5B08"/><stop offset="1" stop-opacity="0"/></radialGradient></defs></svg>